<?xml version="1.0" encoding="UTF-8"?>
<svg version="1.1" xmlns="http://www.w3.org/2000/svg" width="1024" height="1024">
<path d="M0 0 C337.92 0 675.84 0 1024 0 C1024 337.92 1024 675.84 1024 1024 C686.08 1024 348.16 1024 0 1024 C0 686.08 0 348.16 0 0 Z " fill="#FDFDFE" transform="translate(0,0)"/>
<path d="M0 0 C7.57884612 6.19380032 11.65026413 13.95414868 13.75 23.375 C14.14418966 27.38886217 14.14338314 31.36654722 14.11076355 35.39724731 C14.11332682 36.56960399 14.1158901 37.74196066 14.11853105 38.94984329 C14.12259457 42.17683549 14.11330924 45.40345952 14.09819686 48.63040829 C14.08517209 52.12038034 14.08963049 55.610337 14.09190369 59.10032654 C14.09347237 65.13797131 14.08410567 71.17551838 14.06719017 77.21313858 C14.04274961 85.9423747 14.03498974 94.67156386 14.0312262 103.40083049 C14.02466962 117.56542415 14.00473007 131.72996581 13.97631836 145.89453125 C13.94875719 159.64941143 13.9275337 173.40427745 13.91479492 187.15917969 C13.91400675 188.00784619 13.91321858 188.8565127 13.91240653 189.73089637 C13.90849125 193.98865024 13.90470017 198.24640422 13.90097082 202.50415826 C13.86989965 237.7944759 13.81708555 273.08473314 13.75 308.375 C14.71999121 308.37131283 15.68998241 308.36762566 16.68936729 308.36382675 C40.309758 308.27496201 63.93012698 308.20926541 87.55064964 308.16775131 C98.97344282 308.14714092 110.39612544 308.11904934 121.81884766 308.07324219 C131.77685039 308.03332791 141.73477306 308.00755612 151.69285357 307.99864602 C156.96382794 307.99343908 162.23457325 307.98123243 167.50547409 307.95207977 C172.47128397 307.92483824 177.43677142 307.91657267 182.40264893 307.92256927 C184.22065612 307.92147294 186.03867461 307.91357132 187.85661697 307.8981781 C200.75486951 307.7943625 210.94339815 308.73374329 220.703125 317.95703125 C227.00410247 325.40036151 230.16742077 333.8814684 229.625 343.5625 C228.47922456 355.83472124 222.03595982 362.73505139 213.75 371.375 C212.61501521 372.63692388 211.48896675 373.9069843 210.375 375.1875 C209.8284375 375.81527344 209.281875 376.44304687 208.71875 377.08984375 C207.13111798 378.93263092 205.54848992 380.77936449 203.96875 382.62890625 C198.63633732 388.871252 193.27509865 395.07146385 187.7578125 401.15234375 C185.91977581 403.18705752 184.11063935 405.24254889 182.3125 407.3125 C178.65942044 411.50803221 174.90494451 415.60873553 171.15625 419.71875 C168.59535899 422.54570761 166.08554523 425.41196548 163.5859375 428.29296875 C161.38367021 430.79043357 159.12859965 433.236277 156.875 435.6875 C153.56663086 439.31023905 150.38987642 442.99192891 147.3125 446.8125 C143.49046626 451.55756514 139.4583849 456.05142692 135.29125977 460.49194336 C132.71899968 463.21414974 132.71899968 463.21414974 130.75 466.375 C130.09 466.375 129.43 466.375 128.75 466.375 C128.47760498 466.96958008 128.20520996 467.56416016 127.92456055 468.17675781 C126.77970512 470.31940556 125.62355302 471.79506637 123.95703125 473.546875 C123.41288574 474.12445557 122.86874023 474.70203613 122.30810547 475.29711914 C121.44403076 476.20192017 121.44403076 476.20192017 120.5625 477.125 C119.37293694 478.38860696 118.18412745 479.65292378 116.99609375 480.91796875 C116.42874512 481.52044434 115.86139648 482.12291992 115.27685547 482.74365234 C111.46564783 486.81568455 107.85930995 491.05397632 104.2734375 495.32421875 C98.74624773 501.90618551 93.10149786 508.33467887 87.265625 514.64453125 C81.44009249 520.88297228 81.44009249 520.88297228 76.1875 527.59375 C75.713125 528.1815625 75.23875 528.769375 74.75 529.375 C74.09 529.375 73.43 529.375 72.75 529.375 C72.37875 530.22384766 72.37875 530.22384766 72 531.08984375 C70.54302124 533.75338304 68.80895696 535.70573773 66.75 537.9375 C65.94820312 538.81277344 65.14640625 539.68804688 64.3203125 540.58984375 C63.47210937 541.50894531 62.62390625 542.42804687 61.75 543.375 C60.04012113 545.24859068 58.33177999 547.12358591 56.625 549 C55.78839844 549.91910156 54.95179688 550.83820312 54.08984375 551.78515625 C51.53299018 554.61519618 49.01935447 557.47901663 46.51953125 560.359375 C44.49885044 562.66107764 42.43687382 564.92264379 40.375 567.1875 C37.26471149 570.62878205 34.28521688 574.13821298 31.375 577.75 C27.21437925 582.89258543 22.80643696 587.74951737 18.3125 592.59765625 C15.65133655 595.48193553 13.06300992 598.41837133 10.4921875 601.3828125 C8.43499601 603.73520635 6.34403085 606.05534966 4.25 608.375 C-0.57121275 613.72289986 -5.32894027 619.11802215 -10 624.59765625 C-14.74079323 630.15622479 -19.49086217 635.68437974 -24.4375 641.0625 C-27.60830742 644.51515696 -30.63035031 648.03030966 -33.5625 651.6875 C-37.63383737 656.7388407 -41.99327412 661.44973892 -46.43920898 666.16748047 C-50.61040738 670.6186374 -54.46043816 675.23331093 -58.2734375 679.99609375 C-60.50885783 682.68655024 -62.92424974 685.07792163 -65.4375 687.50390625 C-68.5275447 690.69384463 -71.24583642 694.1885437 -74.03515625 697.640625 C-76.05910578 700.13932812 -78.10094597 702.61589611 -80.1875 705.0625 C-80.73277344 705.70574219 -81.27804687 706.34898437 -81.83984375 707.01171875 C-83.25 708.375 -83.25 708.375 -85.25 708.375 C-85.48589844 708.93058594 -85.72179687 709.48617187 -85.96484375 710.05859375 C-87.5627752 712.93875591 -89.555005 715.03869076 -91.8125 717.4375 C-95.22608641 721.10750604 -98.48955183 724.83498885 -101.625 728.75 C-106.45589864 734.73723076 -111.67913584 740.31746832 -116.92089844 745.94140625 C-121.28762657 750.65144071 -125.39055809 755.52640241 -129.375 760.5625 C-132.15838389 764.0671062 -134.99831365 767.2900668 -138.25 770.375 C-138.80558594 770.95121094 -139.36117187 771.52742187 -139.93359375 772.12109375 C-146.2293349 778.63346255 -150.97543321 781.41971605 -160.13964844 781.71777344 C-168.35224292 781.83617257 -174.29780119 781.18266974 -181.25 776.375 C-182.1575 775.818125 -183.065 775.26125 -184 774.6875 C-189.35519758 769.18354694 -193.31629536 762.34345397 -193.45333862 754.60142517 C-193.47287975 753.60661322 -193.49242088 752.61180126 -193.51255417 751.58684349 C-193.52887516 750.48431551 -193.54519615 749.38178753 -193.56201172 748.24584961 C-193.58250202 747.06685404 -193.60299232 745.88785847 -193.62410355 744.67313576 C-193.67910334 741.35470378 -193.72884241 738.03628687 -193.77496576 734.71772504 C-193.80496206 732.57018671 -193.83645273 730.42267397 -193.86812973 728.27515984 C-194.48313522 685.88615874 -194.40117019 643.49164776 -194.37856936 601.09925497 C-194.37478947 593.18571319 -194.37616558 585.2721839 -194.38037109 577.35864258 C-194.40581567 528.3553507 -194.40662579 479.36731846 -193.25 430.375 C-194.12483567 430.37776538 -194.99967134 430.38053076 -195.90101719 430.38337994 C-217.19205992 430.44964578 -238.48308486 430.49928354 -259.77420902 430.53043652 C-270.07045763 430.54590246 -280.36663738 430.56698683 -290.6628418 430.60131836 C-299.63747674 430.63122899 -308.6120618 430.65057698 -317.5867452 430.65726548 C-322.3383552 430.66117491 -327.08982254 430.67035703 -331.8413868 430.69219017 C-336.31551071 430.71258155 -340.78943343 430.71882842 -345.2635994 430.71432304 C-346.90386613 430.71514706 -348.54413973 430.72109692 -350.18436623 430.73261642 C-352.42862163 430.7476024 -354.67212325 430.74393187 -356.91639709 430.73576355 C-358.17095735 430.73852893 -359.4255176 430.74129431 -360.71809483 430.74414349 C-368.8582096 429.8933646 -376.92637214 425.19321626 -382.4375 419.1875 C-389.17861459 410.78873429 -392.08259127 402.02588458 -391.25 391.375 C-388.98714443 378.96043456 -378.51272648 370.21752132 -370.25 361.375 C-367.99873424 358.95951018 -365.74905102 356.54255196 -363.5 354.125 C-362.94103027 353.52469971 -362.38206055 352.92439941 -361.80615234 352.3059082 C-358.53101611 348.78075784 -355.32943367 345.20714306 -352.1875 341.5625 C-348.87017012 337.81712756 -345.43531153 334.18001101 -342.02099609 330.52319336 C-339.08458082 327.37192881 -336.1870276 324.20123339 -333.375 320.9375 C-330.7168382 317.85377043 -327.89229623 314.99952718 -324.9921875 312.14453125 C-322.58894809 309.70357283 -320.36264125 307.12742368 -318.125 304.53515625 C-315.31294247 301.29543164 -312.432873 298.1180819 -309.55859375 294.93359375 C-308.0688072 293.28247667 -306.58163123 291.62899856 -305.09765625 289.97265625 C-300.34513684 284.67011651 -295.53497819 279.42467898 -290.69873047 274.19873047 C-286.16903385 269.29914475 -281.70069881 264.34643871 -277.25 259.375 C-272.91636396 254.54162935 -268.57337965 249.7207415 -264.15966797 244.96020508 C-260.20133113 240.68446091 -256.38643434 236.37103019 -252.75 231.8125 C-248.7470683 226.83394336 -244.35705171 222.38596622 -239.8046875 217.921875 C-237.09672173 215.22219048 -234.58974086 212.41885987 -232.10546875 209.515625 C-229.80545276 206.86213287 -227.43845599 204.27275649 -225.0625 201.6875 C-224.36471436 200.92796021 -224.36471436 200.92796021 -223.65283203 200.15307617 C-221.16976829 197.45374559 -218.68153006 194.75922376 -216.19140625 192.06640625 C-215.16923118 190.96097416 -214.14709569 189.85550548 -213.125 188.75 C-212.61952637 188.20327637 -212.11405273 187.65655273 -211.59326172 187.09326172 C-207.86744492 183.05766606 -204.18617849 178.98399907 -200.51953125 174.89453125 C-197.986451 172.08241979 -195.433838 169.28864419 -192.875 166.5 C-192.41633545 166.00008545 -191.9576709 165.5001709 -191.48510742 164.98510742 C-189.10929762 162.39704589 -186.73109589 159.81120045 -184.3515625 157.2265625 C-183.63492432 156.44708252 -183.63492432 156.44708252 -182.90380859 155.65185547 C-181.58765944 154.22034298 -180.27043058 152.78982339 -178.953125 151.359375 C-176.8965285 149.10823559 -174.88970906 146.81794092 -172.890625 144.515625 C-168.67349094 139.68000849 -164.26720644 135.03233959 -159.85546875 130.375 C-156.11390162 126.40878391 -152.47282424 122.37625641 -148.89794922 118.25927734 C-146.50331647 115.52123652 -144.03869973 112.85164658 -141.5625 110.1875 C-140.52082674 109.0625061 -139.47916027 107.93750592 -138.4375 106.8125 C-137.375 105.66666667 -136.3125 104.52083333 -135.25 103.375 C-127.49197009 94.99941547 -119.78681146 86.58294013 -112.1875 78.0625 C-108.79335582 74.26904474 -105.37869197 70.50057166 -101.88671875 66.796875 C-100.67438553 65.51050491 -99.46214752 64.22404508 -98.25 62.9375 C-97.64937744 62.30038086 -97.04875488 61.66326172 -96.42993164 61.00683594 C-92.00108708 56.27161613 -87.89313543 51.38220684 -83.921875 46.25390625 C-83.37015625 45.63386719 -82.8184375 45.01382813 -82.25 44.375 C-81.59 44.375 -80.93 44.375 -80.25 44.375 C-79.99114014 43.79395508 -79.73228027 43.21291016 -79.46557617 42.61425781 C-78.15515824 40.20028848 -76.70153118 38.52502879 -74.80078125 36.546875 C-74.11693359 35.82886719 -73.43308594 35.11085937 -72.72851562 34.37109375 C-71.65633789 33.25927734 -71.65633789 33.25927734 -70.5625 32.125 C-65.31784775 26.65189673 -60.21480101 21.10279145 -55.25 15.375 C-40.04766969 -1.94893849 -22.46985157 -15.29862234 0 0 Z " fill="#21282E" transform="translate(682.25,103.625)"/>
<path d="M0 0 C0.85309332 -0.00453111 1.70618665 -0.00906223 2.58513129 -0.01373065 C5.43072151 -0.02634493 8.27611961 -0.02475621 11.12173462 -0.02310181 C13.16725408 -0.02908885 15.21277128 -0.03589481 17.25828552 -0.04345703 C22.80583116 -0.06110486 28.35331507 -0.06581186 33.90088606 -0.0670886 C37.36861912 -0.06851129 40.83633653 -0.07278308 44.3040657 -0.07808304 C56.40687301 -0.09657828 68.5096363 -0.10475416 80.61245728 -0.10317993 C91.88633912 -0.10197821 103.16002962 -0.1230879 114.43386304 -0.15466726 C124.12069802 -0.18083243 133.8074705 -0.19154714 143.49434054 -0.19026911 C149.2765524 -0.18975961 155.05859412 -0.19543649 160.84077072 -0.21662521 C166.27945905 -0.23601186 171.71781496 -0.23612895 177.15651512 -0.22159195 C179.14909158 -0.2195034 181.14168888 -0.22420746 183.13422966 -0.23631287 C185.86144031 -0.25180471 188.58751026 -0.24243144 191.31469727 -0.22705078 C192.09691505 -0.23733791 192.87913283 -0.24762503 193.68505418 -0.25822389 C202.46239553 -0.14936886 209.23489821 3.58400577 215.56167603 9.47055054 C222.34965023 16.55097715 223.75615155 23.16997407 223.59683228 32.68930054 C222.95491419 40.03926267 220.14621008 46.30767665 215.13198853 51.73226929 C208.25599869 57.44530101 200.70460911 59.4165935 191.98048401 59.41459656 C190.69477826 59.42011159 190.69477826 59.42011159 189.38309866 59.42573804 C186.49982873 59.43678501 183.61659483 59.44062047 180.73330688 59.44442749 C178.67029709 59.45069148 176.60728843 59.45733822 174.54428101 59.46434021 C168.93033382 59.48175826 163.31639515 59.49230465 157.70242763 59.50054574 C154.19451102 59.50569529 150.68659706 59.51177111 147.17868233 59.51805687 C136.20201838 59.53711311 125.22536118 59.55134208 114.24868387 59.55966884 C101.58083145 59.56943712 88.91315396 59.59574427 76.24536318 59.63616973 C66.45329387 59.66634476 56.66127465 59.68113913 46.86915976 59.68444985 C41.0214532 59.68679916 35.17393343 59.69574402 29.32627678 59.72091103 C23.82117143 59.74422018 18.31637546 59.74841338 12.81123352 59.73814964 C10.7948866 59.73765483 8.77852432 59.743959 6.7622242 59.75770569 C-16.66027821 59.90840892 -16.66027821 59.90840892 -26.18051147 51.04086304 C-31.90542182 44.42735338 -34.06994171 37.35721934 -33.92660522 28.72836304 C-33.2418308 20.73932808 -30.36527971 13.97831315 -24.71566772 8.26742554 C-16.99189698 1.93646591 -9.79238545 -0.03855322 0 0 Z " fill="#A7ADB4" transform="translate(165.71566772460938,684.7325744628906)"/>
<path d="M0 0 C0.8680164 -0.00538554 1.73603281 -0.01077108 2.63035274 -0.01631981 C5.52664337 -0.03057873 8.42247562 -0.02350068 11.31878662 -0.01637268 C13.40047065 -0.02207744 15.48215154 -0.0290421 17.56382751 -0.03717041 C23.21071084 -0.05510824 28.85743882 -0.05393184 34.50434208 -0.04822803 C39.22330618 -0.04513613 43.94224044 -0.05122887 48.66120028 -0.05726677 C59.79855251 -0.07131335 70.93582803 -0.06975045 82.07318115 -0.05836487 C93.54925279 -0.04689198 105.0250905 -0.0609452 116.5011313 -0.08776134 C126.36464908 -0.10994355 136.22809357 -0.11654977 146.09163451 -0.11068493 C151.97785653 -0.10731918 157.86392873 -0.10970479 163.7501297 -0.12693596 C169.28897163 -0.14244234 174.82746829 -0.13840835 180.36629677 -0.11963081 C182.39350381 -0.11595473 184.42073663 -0.11902462 186.44791985 -0.1295166 C209.56898806 -0.23999937 209.56898806 -0.23999937 218.08343506 6.82518005 C218.76406006 7.67080505 219.44468506 8.51643005 220.14593506 9.38768005 C220.84718506 10.15080505 221.54843506 10.91393005 222.27093506 11.70018005 C227.6008078 19.33966432 228.35058193 27.26396114 227.14593506 36.38768005 C224.31813361 45.0114717 220.01288547 50.86701026 212.31128788 55.48862457 C203.30230124 59.83284926 193.45065046 58.94809494 183.69256592 58.90525818 C181.61704519 58.91068406 179.54152831 58.91780932 177.46601868 58.92649841 C171.85038644 58.94467801 166.23504934 58.93768661 160.61941218 58.92498207 C154.73262048 58.91482799 148.8458534 58.92425431 142.95906067 58.93052673 C133.07591228 58.93779554 123.19288362 58.92823491 113.30975342 58.90916443 C101.89435008 58.88739123 90.47923247 58.89445353 79.06383604 58.91647005 C69.24953742 58.93463865 59.43532466 58.93717538 49.62101465 58.92671537 C43.76509167 58.92048929 37.90930288 58.91962068 32.0533886 58.93286133 C26.54814885 58.94444058 21.04327658 58.93635589 15.5380764 58.9132843 C13.52132018 58.9080086 11.50453288 58.90949142 9.48778915 58.91833496 C6.72787083 58.92931895 3.96911896 58.91549271 1.20927429 58.89561462 C0.02150789 58.90899895 0.02150789 58.90899895 -1.19025379 58.92265368 C-9.81974412 58.80267201 -16.8557579 55.18467103 -23.12750244 49.38768005 C-28.66563354 42.97246937 -30.30731174 34.71557551 -30.18609619 26.4618988 C-29.20767661 17.4028846 -25.19472392 10.81205537 -18.33062744 5.0087738 C-12.16225235 0.97111503 -7.227064 -0.05423415 0 0 Z " fill="#A7ADB4" transform="translate(161.85406494140625,172.61231994628906)"/>
<path d="M0 0 C1.20638878 -0.01270432 1.20638878 -0.01270432 2.43714905 -0.02566528 C5.07829905 -0.04893602 7.71886293 -0.05005969 10.36010742 -0.04882812 C12.20944955 -0.05593662 14.0587895 -0.06363663 15.90812683 -0.07189941 C19.77898288 -0.08532214 23.64963506 -0.08692335 27.52050781 -0.08105469 C32.45997302 -0.07516627 37.39845272 -0.10572482 42.33772755 -0.14617157 C46.15639944 -0.17213302 49.97483685 -0.17491825 53.79358482 -0.17127991 C55.61350667 -0.17296383 57.43344021 -0.18253565 59.25327492 -0.20042419 C79.44176628 -0.3770203 79.44176628 -0.3770203 87.77131653 7.39685059 C94.16122964 14.06357936 97.10141801 21.84530427 96.92651367 31.11523438 C95.91365217 39.65220993 92.13413125 46.84888817 85.65307617 52.41992188 C76.386777 58.6082066 66.66988299 58.13861538 55.99291992 58.04882812 C54.19413612 58.04965857 52.3953524 58.05212454 50.59657288 58.05613708 C46.84360665 58.05898147 43.0912417 58.04442643 39.33837891 58.0168457 C34.55153684 57.98274051 29.7657669 57.98880234 24.97887325 58.00750828 C21.26997594 58.0181249 17.56132397 58.00909873 13.85244942 57.99412346 C12.08838189 57.988977 10.32428836 57.98938 8.56022453 57.99566841 C-2.60546612 58.02054122 -12.46120424 58.03429044 -21.22192383 50.16992188 C-27.17616214 43.63991995 -29.63820338 36.51085279 -29.49536133 27.78320312 C-28.94786999 19.06656468 -25.44387988 11.99762907 -18.97192383 6.10742188 C-13.2876833 1.22121512 -7.3101912 -0.02877211 0 0 Z " fill="#A7ACB4" transform="translate(161.346923828125,430.580078125)"/>
<path d="M0 0 C0.99 0.33 1.98 0.66 3 1 C-1.26041226 4.76354036 -5.51848911 8.49881962 -10 12 C-8.69041436 6.59795923 -4.56696036 2.91200245 0 0 Z " fill="#9DA4AD" transform="translate(146,176)"/>
<path d="M0 0 C0.33 0 0.66 0 1 0 C1.33 4.95 1.66 9.9 2 15 C1.01 15.33 0.02 15.66 -1 16 C-0.67 10.72 -0.34 5.44 0 0 Z " fill="#272D34" transform="translate(909,439)"/>
<path d="M0 0 C0.33 0.99 0.66 1.98 1 3 C-1.97 5.475 -1.97 5.475 -5 8 C-5 5 -5 5 -2.5 2.3125 C-1.675 1.549375 -0.85 0.78625 0 0 Z " fill="#111519" transform="translate(446,318)"/>
</svg>
